# xmcd
#
# Track frame offsets:
#	150
#	18861
#	39301
#	52576
#	66986
#	83082
#	94549
#	110130
#	125498
#	135530
#	146077
#	155303
#	166615
#	187440
#	202585
#	215682
#	228840
#	242840
#	255758
#	268771
#
# Disc length: 3739 seconds
# Revision: 3
# Processed by: cddbd v1.5.2PL0 Copyright (c) Steve Scherf et al.
# Submitted via: dBpowerAMP V12.0
#
DISCID=080e9914
DTITLE=Various Artist - 100 Hits: The Best Country Album
DYEAR=2018
DGENRE=Country
TTITLE0=Kenny Rogers and Dolly Parton - Islands In The Stream
TTITLE1=Kris Kristofferson - Sunday Mornin' Comin' Down
TTITLE2=Tammy Wynette - D-I-V-O-R-C-E
TTITLE3=John Denver - Take Me Home, Country Roads
TTITLE4=Bobby Bare - The Gambler
TTITLE5=Waylon Jennings and Willie Nelson - Mammas Don't Let Your Babies Grow Up To Be Cowboys
TTITLE6=B.J. Thomas - Whatever Happened To Old Fashioned Love
TTITLE7=Hoyt Axton - Della And The Dealer
TTITLE8=George Hamilton IV - Abilene
TTITLE9=The Statler Brothers - Flowers On The Wall
TTITLE10=Chet Atkins - Yakety Axe
TTITLE11=Don Gibson - Oh Lonesome Me
TTITLE12=The Highwaymen - Desperados Waiting For A Train
TTITLE13=Ricky Van Shelton - Life Turned Her That Way
TTITLE14=Don Williams - One Good Well
TTITLE15=Charlie Rich - Behind Closed Doors
TTITLE16=George Jones - The Grand Tour
TTITLE17=Marty Robbins - Devil Woman
TTITLE18=Jim Reeves - Distant Drums
TTITLE19=Skeeter Davis - The End Of The World
EXTD=
EXTT0=
EXTT1=
EXTT2=
EXTT3=
EXTT4=
EXTT5=
EXTT6=
EXTT7=
EXTT8=
EXTT9=
EXTT10=
EXTT11=
EXTT12=
EXTT13=
EXTT14=
EXTT15=
EXTT16=
EXTT17=
EXTT18=
EXTT19=
PLAYORDER=
